HIERARCHY
ROOT Hips
{
  OFFSET 0 0 0
  CHANNELS 6 Xposition Yposition Zposition Zrotation Xrotation Yrotation
  JOINT LeftUpLeg
  {
    OFFSET 4.06525 -3.90732 0.41711
    CHANNELS 3 Zrotation Xrotation Yrotation
    JOINT LeftLeg
    {
      OFFSET 0.00023 -18.4821 0.00367
      CHANNELS 3 Zrotation Xrotation Yrotation
      JOINT LeftFoot
      {
        OFFSET -0.00172 -15.2898 -0.02629
        CHANNELS 3 Zrotation Xrotation Yrotation
        JOINT LeftToeBase
        {
          OFFSET 0.36743 -3.19131 5.54287
          CHANNELS 3 Zrotation Xrotation Yrotation
          JOINT LeftToeBase2
          {
            OFFSET 0.08751 0.04849 1.36758
            CHANNELS 3 Zrotation Xrotation Yrotation
            JOINT LeftToeBase3
            {
              OFFSET 0.07484 0.06785 1.16707
            }
          }
        }
      }
    }
  }
  JOINT RightUpLeg
  {
    OFFSET -4.06526 -3.90731 0.41712
    CHANNELS 3 Zrotation Xrotation Yrotation
    JOINT RightLeg
    {
      OFFSET -0.00029 -18.4821 0.0044
      CHANNELS 3 Zrotation Xrotation Yrotation
      JOINT RightFoot
      {
        OFFSET 0.0016 -15.2898 -0.02569
        CHANNELS 3 Zrotation Xrotation Yrotation
        JOINT RightToeBase
        {
          OFFSET -0.3542 -3.19109 5.54386
          CHANNELS 3 Zrotation Xrotation Yrotation
          JOINT RightToeBase2
          {
            OFFSET -0.08424 0.04854 1.36778
            CHANNELS 3 Zrotation Xrotation Yrotation
            JOINT RightToeBase3
            {
              OFFSET -0.07205 0.0679 1.16725
            }
          }
        }
      }
    }
  }
  JOINT Spine
  {
    OFFSET 1e-005 4.46517 -0.10224
    CHANNELS 3 Zrotation Xrotation Yrotation
    JOINT Spine1
    {
      OFFSET 1e-005 4.46212 -0.1824
      CHANNELS 3 Zrotation Xrotation Yrotation
      JOINT Spine2
      {
        OFFSET 0 4.37937 -0.881
        CHANNELS 3 Zrotation Xrotation Yrotation
        JOINT Spine3
        {
          OFFSET 1e-005 4.68286 0.21414
          CHANNELS 3 Zrotation Xrotation Yrotation
          JOINT Neck
          {
            OFFSET 0 1.76964 0.82454
            CHANNELS 3 Zrotation Xrotation Yrotation
            JOINT Head
            {
              OFFSET 0 1.6961 0.93145
              CHANNELS 3 Zrotation Xrotation Yrotation
              JOINT Head_End
              {
                OFFSET 1e-005 7.8375 1.52603
              }
            }
          }
          JOINT LeftShoulder
          {
            OFFSET 1.19381 -0.75881 -0.02768
            CHANNELS 3 Zrotation Xrotation Yrotation
            JOINT LeftArm
            {
              OFFSET 5.18779 -2e-005 1e-005
              CHANNELS 3 Zrotation Xrotation Yrotation
              JOINT LeftForeArm
              {
                OFFSET 12.7364 -4e-005 2e-005
                CHANNELS 3 Zrotation Xrotation Yrotation
                JOINT LeftHand
                {
                  OFFSET 9.21452 -2e-005 1e-005
                  CHANNELS 3 Zrotation Xrotation Yrotation
                }
              }
            }
          }
          JOINT RightShoulder
          {
            OFFSET -1.19381 -0.75881 -0.02767
            CHANNELS 3 Zrotation Xrotation Yrotation
            JOINT RightArm
            {
              OFFSET -5.18779 1e-005 -1e-005
              CHANNELS 3 Zrotation Xrotation Yrotation
              JOINT RightForeArm
              {
                OFFSET -12.7364 3e-005 -2e-005
                CHANNELS 3 Zrotation Xrotation Yrotation
                JOINT RightHand
                {
                  OFFSET -9.21452 2e-005 -1e-005
                  CHANNELS 3 Zrotation Xrotation Yrotation
                }
              }
            }
          }
        }
      }
    }
  }
}
MOTION
Frames: 13
Frame Time: 	0.0166667
-0.432514 41.3086 10.8497 -3.82578 -5.10139 5.6044 3.91631 -19.7198 12.3599  0.00221 32.6124 0.09426  0.247561 -6.76707 20.1806  6.99662e-012 -1.7531e-011 9.24301e-011  -0 0 -0   1.59935 8.45197 -13.997  -0.00130659 12.0499 -0.0383941  2.25364 -14.5017 2.8308  -3.76697e-014 -1.29381e-011 1.02101e-010  -0 0 -0   3.11719 -0.0568933 1.74588  1.49993 1.74263 1.07509  1.32784 2.25792 1.26891  2.81954 4.79432 2.05514  -1.75001 3.15415 -9.49729  0.0661751 -11.7776 -9.90825   -10.506 2.86718 -4.40961  -73.0853 17.4331 3.07771  -2.75452e-011 -1.2688e-010 -4.6143  -0.711802 -18.1865 8.54151  3.10553 2.06894 7.65771  55.4237 6.3401 7.20189  -1.71899e-011 1.44437e-011 36.7608  -4.1682 0.32482 2.29189 
-0.339711 41.228 11.3701 -3.88337 -4.89471 5.92976 3.23429 -19.6515 13.1683  0.00252962 30.1879 0.103732  2.22731 -5.82698 22.3195  6.99662e-012 -1.7531e-011 9.24301e-011  -0 0 -0   1.72495 9.1316 -13.4516  -0.00146275 12.0112 -0.0395361  2.30223 -15.3132 1.96928  -3.76697e-014 -1.29381e-011 1.02101e-010  -0 0 -0   3.01787 -0.283972 1.79548  1.54555 1.61452 1.09254  1.38043 2.13463 1.29371  2.94632 4.60461 2.10927  -2.18625 3.27117 -9.30575  0.104523 -11.693 -9.80962   -10.9759 2.78311 -3.68578  -73.1144 16.3706 4.49041  -2.72e-011 -1.26907e-010 -4.45846  -0.682445 -18.8658 8.73137  2.89832 2.04625 7.5923  55.2642 5.86776 7.04124  -1.75982e-011 1.41295e-011 38.3983  -4.58648 0.563273 3.17707 
-0.24265 41.1516 11.8762 -3.8602 -4.71319 6.31798 2.46601 -19.5695 13.6217  0.00174662 28.7007 0.113492  4.24775 -5.18127 24.517  6.99662e-012 -1.7531e-011 9.24301e-011  -0 0 -0   1.71667 9.55629 -12.8774  -0.00139367 12.5466 -0.0403555  2.29483 -16.192 1.02593  -3.76697e-014 -1.29381e-011 1.02101e-010  -0 0 -0   2.8287 -0.491684 1.83718  1.56801 1.49488 1.09811  1.42089 2.02283 1.30394  3.07017 4.41456 2.14046  -2.53012 3.36076 -9.10669  0.133922 -11.6104 -9.68879   -11.36 2.69044 -2.99673  -73.1062 15.4779 5.77693  -2.69542e-011 -1.26926e-010 -4.34748  -0.765677 -19.4908 8.78608  2.77828 2.04343 7.57624  55.1648 5.39838 6.85407  -1.79326e-011 1.3858e-011 39.7672  -5.1636 1.11519 4.00293 
-0.140194 41.0882 12.3668 -3.84688 -4.60603 6.74438 1.77865 -19.3832 13.5482  5.86278e-005 28.1425 0.12214  6.09252 -4.99568 26.5337  6.99662e-012 -1.7531e-011 9.24301e-011  -0 0 -0   1.66455 9.68399 -12.3713  -0.00110643 13.8167 -0.0408163  2.25213 -17.0783 0.105058  -3.76697e-014 -1.29381e-011 1.02101e-010  -0 0 -0   2.67305 -0.66745 1.88468  1.55135 1.40469 1.10008  1.43615 1.94891 1.30685  3.1768 4.21755 2.14723  -2.77179 3.4252 -8.90914  0.174189 -11.5426 -9.55145   -11.625 2.59346 -2.37312  -73.0964 14.8232 6.89391  -2.65527e-011 -1.26956e-010 -4.16623  -1.16746 -20.1713 8.56871  2.74043 2.05523 7.60827  55.1467 4.91389 6.67967  -1.81714e-011 1.36557e-011 40.7619  -6.10833 2.22139 4.77402 
-0.0328559 41.042 12.842 -3.76328 -4.56783 7.25191 1.05745 -19.0578 13.0264  -0.00125404 28.1285 0.128597  7.66135 -5.06894 28.3083  6.99662e-012 -1.7531e-011 9.24301e-011  -0 0 -0   1.46224 9.47276 -11.9924  -0.000692709 15.8995 -0.0408888  2.22716 -17.8658 -0.73391  -3.76697e-014 -1.29381e-011 1.02101e-010  -0 0 -0   2.49203 -0.797545 1.92561  1.50262 1.34076 1.10071  1.42398 1.89643 1.30086  3.24308 4.06086 2.13891  -2.91371 3.42871 -8.7235  0.182377 -11.4797 -9.39167   -11.7589 2.5064 -1.85252  -73.1002 14.3713 7.77428  -2.60003e-011 -1.26995e-010 -3.91701  -1.7517 -20.8154 8.20063  2.77426 2.08443 7.65963  55.2338 4.46352 6.5085  -1.83533e-011 1.34967e-011 41.5297  -7.15002 3.28945 5.38802 
0.0794067 41.024 13.2997 -3.54102 -4.62648 7.88087 0.239071 -18.4921 11.9927  -0.000811204 28.3047 0.13008  8.68515 -5.2742 29.694  6.99662e-012 -1.7531e-011 9.24301e-011  -0 0 -0   1.01231 8.8712 -11.8465  -0.000515778 18.9805 -0.0405899  2.32681 -18.4972 -1.37736  -3.76697e-014 -1.29381e-011 1.02101e-010  -0 0 -0   2.25161 -0.844636 1.9523  1.42128 1.31166 1.10033  1.37714 1.85227 1.28458  3.2482 3.99009 2.12253  -2.95122 3.32157 -8.57755  0.122715 -11.4021 -9.20171   -11.7002 2.44959 -1.48824  -73.1775 14.1145 8.31545  -2.51372e-011 -1.27051e-010 -3.52768  -2.47062 -21.4367 7.71293  2.87213 2.13724 7.69249  55.4619 4.07938 6.33369  -1.85183e-011 1.33487e-011 42.2341  -8.06248 3.76526 5.76291 
0.198429 41.0235 13.7423 -3.23031 -4.73089 8.61472 -0.613023 -17.7538 10.7196  6.99586e-005 28.5613 0.126907  9.34975 -5.603 30.7085  6.99662e-012 -1.7531e-011 9.24301e-011  -0 0 -0   0.361899 7.87871 -11.8973  0.000365142 22.8901 -0.0398742  2.46471 -18.7722 -1.86463  -3.76697e-014 -1.29381e-011 1.02101e-010  -0 0 -0   2.00673 -0.867951 1.96347  1.31516 1.3026 1.09925  1.29825 1.83225 1.26478  3.17235 4.00315 2.10345  -2.89421 3.14777 -8.42852  -0.00679559 -11.3524 -8.99288   -11.5665 2.40926 -1.26351  -73.23 14.0395 8.58064  -2.42027e-011 -1.27106e-010 -3.10634  -3.26518 -21.8286 7.2395  3.02043 2.19817 7.73281  55.8155 3.79471 6.18648  -1.86313e-011 1.32453e-011 42.7207  -8.92114 3.77469 5.84236 
0.326868 41.0357 14.1752 -2.86255 -4.84932 9.44981 -1.48332 -16.8709 9.4042  6.24919e-005 28.661 0.118534  9.68987 -6.01673 31.3218  6.99662e-012 -1.7531e-011 9.24301e-011  -0 0 -0   -0.496856 6.45162 -12.1629  0.000538948 27.6288 -0.036782  2.64801 -18.5126 -2.17096  -3.76697e-014 -1.29381e-011 1.02101e-010  -0 0 -0   1.81455 -0.916047 1.95318  1.18849 1.30543 1.09779  1.18221 1.85306 1.25271  2.97182 4.13152 2.09801  -2.714 2.91524 -8.25593  -0.239848 -11.3678 -8.79363   -11.4856 2.37981 -1.20188  -73.142 14.1514 8.57839  -2.33114e-011 -1.27151e-010 -2.70466  -4.10331 -21.6962 6.87445  3.22554 2.25311 7.78312  56.2946 3.66238 6.12169  -1.86519e-011 1.32263e-011 42.8099  -9.75912 3.15971 5.59559 
0.461769 41.0572 14.599 -2.44197 -4.95484 10.3896 -2.33272 -15.873 8.19276  4.98468e-005 28.6009 0.103613  9.8436 -6.49136 31.529  6.99662e-012 -1.7531e-011 9.24301e-011  -0 0 -0   -1.53169 4.67374 -12.5951  -0.000161172 32.8917 -0.0325251  2.70112 -17.6102 -2.37467  -3.76697e-014 -1.29381e-011 1.02101e-010  -0 0 -0   1.6494 -0.985292 1.92491  1.05341 1.30784 1.09474  1.04687 1.89784 1.23364  2.69947 4.31899 2.08064  -2.52151 2.68231 -8.02063  -0.514396 -11.4451 -8.54421   -11.3623 2.35665 -1.23587  -73.0254 14.3874 8.37018  -2.26794e-011 -1.27179e-010 -2.41987  -4.85624 -21.3184 6.76833  3.41978 2.30416 7.87588  56.8882 3.65561 6.06178  -1.86358e-011 1.32411e-011 42.7403  -10.4773 2.21793 4.86398 
0.602394 41.0836 15.0166 -1.97694 -5.00243 11.4203 -3.15851 -14.8032 7.31785  3.23883e-005 28.2656 0.0802948  9.95052 -6.9908 31.2956  6.99662e-012 -1.7531e-011 9.24301e-011  -0 0 -0   -2.73809 2.56366 -13.1542  -0.00221983 38.4661 -0.02705  2.4376 -15.8407 -2.56771  -3.76697e-014 -1.29381e-011 1.02101e-010  -0 0 -0   1.50034 -1.10214 1.88705  0.924798 1.29713 1.07692  0.907495 1.96157 1.19696  2.38902 4.5288 2.03129  -2.42791 2.51595 -7.6715  -0.77327 -11.611 -8.1915   -11.1226 2.33144 -1.30866  -72.9751 14.6854 8.01196  -2.25728e-011 -1.27184e-010 -2.37187  -5.3908 -20.8275 7.22417  3.51708 2.34669 8.05812  57.6108 3.7652 5.93327  -1.86301e-011 1.32464e-011 42.7156  -11.084 1.07761 3.33235 
0.745182 41.1158 15.4245 -1.50559 -5.02076 12.5911 -3.91991 -13.6654 6.68792  9.61787e-006 27.7155 0.0464479  10.0177 -7.4981 30.6716  6.99662e-012 -1.7531e-011 9.24301e-011  -0 0 -0   -4.04216 0.269563 -13.8438  -0.00599829 44.0948 -0.0203667  1.88455 -13.3806 -2.70693  -3.76697e-014 -1.29381e-011 1.02101e-010  -0 0 -0   1.39364 -1.226 1.81688  0.800928 1.28327 1.04189  0.768686 2.02474 1.1416  2.05693 4.73339 1.94973  -2.40511 2.39824 -7.22338  -1.03214 -11.812 -7.74352   -10.8294 2.30966 -1.41198  -72.9255 15.0479 7.52893  -2.29555e-011 -1.27167e-010 -2.54426  -5.68811 -20.3692 7.87864  3.57855 2.38671 8.28868  58.3858 3.99126 5.7788  -1.86176e-011 1.32579e-011 42.6618  -11.2897 0.0888133 1.43954 
0.886124 41.143 15.8158 -1.05842 -5.01807 13.9394 -4.57823 -12.5323 6.33589  -3.00181e-005 27.0653 0.00451158  10.1136 -8.03707 29.6713  6.99662e-012 -1.7531e-011 9.24301e-011  -0 0 -0   -5.38309 -2.13326 -14.6575  -0.00697118 49.5562 -0.0186717  0.90095 -10.2188 -2.80302  -3.76697e-014 -1.29381e-011 1.02101e-010  -0 0 -0   1.3386 -1.33136 1.68776  0.683937 1.2704 0.981417  0.640341 2.06187 1.05965  1.73523 4.89515 1.82418  -2.49526 2.33973 -6.65615  -1.28004 -12.0108 -7.17112   -10.5227 2.29165 -1.50015  -72.8506 15.4619 6.96888  -2.39894e-011 -1.27117e-010 -3.01019  -5.64608 -20.1832 8.59616  3.61441 2.43182 8.57223  59.1416 4.31328 5.6225  -1.85899e-011 1.32835e-011 42.5418  -10.6858 -0.3033 -0.516587 
1.01882 41.1642 16.1897 -0.606812 -4.99685 15.4868 -5.18279 -11.4208 6.1229  -7.30417e-005 26.3774 -0.0393395  10.2037 -8.59501 28.3778  6.99662e-012 -1.7531e-011 9.24301e-011  -0 0 -0   -6.7865 -4.53696 -15.5587  -0.00558799 54.7689 -0.0201699  -0.22647 -6.80121 -2.8089  -3.76697e-014 -1.29381e-011 1.02101e-010  -0 0 -0   1.29235 -1.39841 1.52482  0.568929 1.26469 0.903339  0.513588 2.08746 0.960466  1.40263 5.00915 1.66813  -2.60227 2.32234 -6.02351  -1.54292 -12.1843 -6.53299   -10.1967 2.28437 -1.62857  -72.7266 15.9122 6.32002  -2.53441e-011 -1.27039e-010 -3.62097  -5.38124 -20.1204 8.9965  3.69147 2.4727 8.81835  59.8784 4.78393 5.44641  -1.85684e-011 1.33031e-011 42.4493  -9.63704 -0.255689 -2.42823 
